<svg xmlns="http://www.w3.org/2000/svg" width="760" height="760" viewBox="0 0 760 760">
  <path id="contrastIcon" d="M-4029.5-2928v-130.6a255.091,255.091,0,0,0,28.5,1.6,255.24,255.24,0,0,0,28.5-1.6V-2928Zm184.7-183.493a255.147,255.147,0,0,0,21.282-19.023,255.074,255.074,0,0,0,19.023-21.283l92.347,92.347-40.306,40.306Zm-445.055,52.041,91.639-91.639h0a255.227,255.227,0,0,0,19.022,21.283,255.681,255.681,0,0,0,21.282,19.023l-91.639,91.639Zm247.44-47.723a204.517,204.517,0,0,1-38.576-11.973A205.562,205.562,0,0,1-4115.9-3138.1a206.818,206.818,0,0,1-30.415-25.093A207.186,207.186,0,0,1-4171.4-3193.6a205.571,205.571,0,0,1-18.947-34.906,204.384,204.384,0,0,1-11.972-38.573,206.909,206.909,0,0,1-4.177-41.416,206.912,206.912,0,0,1,4.177-41.417,204.411,204.411,0,0,1,11.972-38.573A205.675,205.675,0,0,1-4171.4-3423.4a207.284,207.284,0,0,1,25.094-30.413A206.9,206.9,0,0,1-4115.9-3478.9a205.529,205.529,0,0,1,34.906-18.946,204.511,204.511,0,0,1,38.576-11.975A206.9,206.9,0,0,1-4001-3514a206.9,206.9,0,0,1,41.413,4.176,204.516,204.516,0,0,1,38.576,11.975A205.477,205.477,0,0,1-3886.1-3478.9a206.883,206.883,0,0,1,30.412,25.093A206.873,206.873,0,0,1-3830.6-3423.4a205.481,205.481,0,0,1,18.948,34.909,204.387,204.387,0,0,1,11.973,38.573,206.928,206.928,0,0,1,4.176,41.417,206.926,206.926,0,0,1-4.176,41.416,204.387,204.387,0,0,1-11.973,38.573A205.377,205.377,0,0,1-3830.6-3193.6a206.891,206.891,0,0,1-25.094,30.415A206.806,206.806,0,0,1-3886.1-3138.1a205.642,205.642,0,0,1-34.906,18.948,204.544,204.544,0,0,1-38.576,11.973A206.969,206.969,0,0,1-4001-3103,206.982,206.982,0,0,1-4042.414-3107.175Zm41.666-43.825h0Zm-.251,0h0Zm-.333,0h0Zm1.085,0c3.357-.015,6.677-.136,9.982-.361Q-3995.244-3151.026-4000.246-3151Zm-1.38,0h0Zm-.291,0Zm-.074,0h0Zm-.205,0h0Zm-.291,0h0Zm-.289,0h0ZM-4158.5-3308.5c0,85.34,68.228,155.045,153,157.437v-314.874C-4090.275-3463.549-4158.5-3393.843-4158.5-3308.5Zm168.276,157.135.033,0Zm.047,0,.092-.006Zm.254-.018.026,0Zm1.778-314.1h0Zm-.177-.014-.081-.007Zm-.19-.015q-6.056-.476-12.236-.489Q-3994.617-3465.99-3988.511-3465.511Zm-16.356-.443c.9-.021,1.808-.036,2.7-.042C-4003.068-3465.99-4003.967-3465.975-4004.867-3465.954ZM-4001-3466h0Zm249.4,186.5a255.084,255.084,0,0,0,1.6-28.5,255.239,255.239,0,0,0-1.6-28.5H-3621v57Zm-629.4,0v-57h129.6a255.183,255.183,0,0,0-1.6,28.5,255.261,255.261,0,0,0,1.6,28.5Zm557.484-205.983a255.063,255.063,0,0,0-21.283-19.023l92.347-92.347,40.306,40.306-92.346,92.346A255.163,255.163,0,0,0-3823.517-3485.483Zm-466.337-71.064,40.306-40.306,91.639,91.639h0a255.373,255.373,0,0,0-21.283,19.023,255.576,255.576,0,0,0-19.023,21.282Zm317.354-1.855a255.059,255.059,0,0,0-28.5-1.6,255.209,255.209,0,0,0-28.5,1.6V-3688h57v129.6h0Z" transform="translate(4381 3688)"/>
</svg>
