<svg xmlns="http://www.w3.org/2000/svg" width="570" height="568" viewBox="0 0 570 568">
  <path id="deleteIcon" d="M-6292-3120a10.012,10.012,0,0,1-10-10v-450h-59a10,10,0,0,1-10-10v-30a10,10,0,0,1,10-10h113.021a69.514,69.514,0,0,1,4.481-15.247,69.712,69.712,0,0,1,15-22.25,69.775,69.775,0,0,1,22.247-15A69.594,69.594,0,0,1-6179-3688h185a69.58,69.58,0,0,1,27.247,5.5,69.8,69.8,0,0,1,22.252,15,69.758,69.758,0,0,1,15,22.25A69.5,69.5,0,0,1-5925.02-3630l-34.818,0H-5811a10,10,0,0,1,10,10v30a10,10,0,0,1-10,10h-59v450a10.011,10.011,0,0,1-10,10Zm30-47h352v-413h-352Zm48.84-463h253.323A39.861,39.861,0,0,0-5998-3658h-177A39.863,39.863,0,0,0-6213.161-3630ZM-6008-3226v-272a17,17,0,0,1,17-17,17,17,0,0,1,17,17v272a17,17,0,0,1-17,17A17,17,0,0,1-6008-3226Zm-95,0v-272a17,17,0,0,1,17-17,17,17,0,0,1,17,17v272a17,17,0,0,1-17,17A17,17,0,0,1-6103-3226Zm-95,0v-272a17,17,0,0,1,17-17,17,17,0,0,1,17,17v272a17,17,0,0,1-17,17A17,17,0,0,1-6198-3226Z" transform="translate(6371 3688)"/>
</svg>
