<svg xmlns="http://www.w3.org/2000/svg" width="481.127" height="559.699" viewBox="0 0 481.127 559.699">
  <g id="mouseIcon" transform="matrix(0.906, -0.423, 0.423, 0.906, 3722.997, 2457.556)">
    <path d="M -2205.70947265625 -3209.5 L -2266.944091796875 -3209.5 C -2269.42529296875 -3209.5 -2271.44384765625 -3211.518798828125 -2271.44384765625 -3214 L -2271.44384765625 -3405.56640625 L -2271.44384765625 -3406.196533203125 L -2272.0576171875 -3406.05322265625 L -2390.11474609375 -3378.495361328125 L -2239.8408203125 -3678.83935546875 C -2239.44677734375 -3679.627685546875 -2238.851318359375 -3680.272216796875 -2238.118896484375 -3680.70361328125 C -2237.428955078125 -3681.110595703125 -2236.6328125 -3681.32568359375 -2235.816650390625 -3681.32568359375 C -2235.000244140625 -3681.32568359375 -2234.204345703125 -3681.110595703125 -2233.51513671875 -3680.703857421875 C -2232.7822265625 -3680.272216796875 -2232.186767578125 -3679.627685546875 -2231.792724609375 -3678.83935546875 L -2081.520263671875 -3378.49658203125 L -2200.595947265625 -3406.29150390625 L -2201.209716796875 -3406.434814453125 L -2201.209716796875 -3405.8046875 L -2201.209716796875 -3214 C -2201.209716796875 -3211.518798828125 -2203.228271484375 -3209.5 -2205.70947265625 -3209.5 Z" stroke="none"/>
    <path d="M -2205.70947265625 -3210 C -2203.50390625 -3210 -2201.709716796875 -3211.79443359375 -2201.709716796875 -3214 L -2201.709716796875 -3405.8046875 L -2201.709716796875 -3407.06494140625 L -2200.482421875 -3406.778564453125 L -2082.444091796875 -3379.2255859375 L -2232.23974609375 -3678.61572265625 C -2232.5908203125 -3679.317626953125 -2233.119384765625 -3679.890625 -2233.769287109375 -3680.273193359375 C -2234.381591796875 -3680.634765625 -2235.089599609375 -3680.82568359375 -2235.816650390625 -3680.82568359375 C -2236.543701171875 -3680.82568359375 -2237.251708984375 -3680.634521484375 -2237.864990234375 -3680.272705078125 C -2238.51416015625 -3679.890625 -2239.042724609375 -3679.317626953125 -2239.393798828125 -3678.615478515625 L -2389.19091796875 -3379.224609375 L -2272.171142578125 -3406.540283203125 L -2270.94384765625 -3406.82666015625 L -2270.94384765625 -3405.56640625 L -2270.94384765625 -3214 C -2270.94384765625 -3211.79443359375 -2269.149658203125 -3210 -2266.944091796875 -3210 L -2205.70947265625 -3210 M -2205.70947265625 -3209 L -2266.944091796875 -3209 C -2269.7060546875 -3209 -2271.94384765625 -3211.238037109375 -2271.94384765625 -3214 L -2271.94384765625 -3405.56640625 L -2391.007080078125 -3377.773681640625 L -2391.009033203125 -3377.772705078125 L -2391.009033203125 -3377.7744140625 C -2390.9453125 -3377.936279296875 -2390.8759765625 -3378.09130859375 -2390.802978515625 -3378.2373046875 L -2240.2880859375 -3679.06298828125 C -2239.85107421875 -3679.93701171875 -2239.1884765625 -3680.654052734375 -2238.37255859375 -3681.134521484375 C -2237.6064453125 -3681.58642578125 -2236.72216796875 -3681.82568359375 -2235.816650390625 -3681.82568359375 C -2234.9111328125 -3681.82568359375 -2234.02685546875 -3681.58642578125 -2233.260986328125 -3681.134521484375 C -2232.445068359375 -3680.654052734375 -2231.782470703125 -3679.93701171875 -2231.345458984375 -3679.06298828125 L -2080.83154296875 -3378.2373046875 C -2080.755615234375 -3378.0869140625 -2080.686279296875 -3377.931640625 -2080.626220703125 -3377.7744140625 L -2200.709716796875 -3405.8046875 L -2200.709716796875 -3214 C -2200.709716796875 -3211.238037109375 -2202.948486328125 -3209 -2205.70947265625 -3209 Z" stroke="none" fill="#707070"/>
  </g>
</svg>
