<svg id="Layer_1" data-name="Layer 1" xmlns="http://www.w3.org/2000/svg" viewBox="0 0 428.19 358.77"><defs><style>.cls-1{fill:#4285f4;fill-rule:evenodd;}</style></defs><title>Grafiken Projektarbeit</title><path class="cls-1" d="M240.7,266.4h0c0-35.77,27-64.76,60.3-64.76h0a58.27,58.27,0,0,1,42.64,19A67.24,67.24,0,0,1,361.3,266.4h0c0,35.76-27,64.76-60.3,64.76h0C267.7,331.16,240.7,302.16,240.7,266.4Z" transform="translate(-86.91 -91.59)"/><path class="cls-1" d="M349.15,370.32c-12.77-21.23-30.09-33.15-48.15-33.15-37.61,0-68.09,50.68-68.09,113.19H369.09C369.09,420.34,361.92,391.55,349.15,370.32Z" transform="translate(-86.91 -91.59)"/><path class="cls-1" d="M386.7,156.35h0c0-35.77,27-64.76,60.3-64.76h0a58.27,58.27,0,0,1,42.64,19,67.24,67.24,0,0,1,17.66,45.79h0c0,35.76-27,64.76-60.3,64.76h0C413.7,221.11,386.7,192.11,386.7,156.35Z" transform="translate(-86.91 -91.59)"/><path class="cls-1" d="M495.15,260.27C482.38,239,465.06,227.12,447,227.12c-37.61,0-68.09,50.67-68.09,113.19H515.09C515.09,310.29,507.92,281.5,495.15,260.27Z" transform="translate(-86.91 -91.59)"/><path class="cls-1" d="M94.7,159.79h0C94.7,124,121.7,95,155,95h0a58.27,58.27,0,0,1,42.64,19,67.24,67.24,0,0,1,17.66,45.79h0c0,35.76-27,64.76-60.3,64.76h0C121.7,224.55,94.7,195.55,94.7,159.79Z" transform="translate(-86.91 -91.59)"/><path class="cls-1" d="M203.15,263.71c-12.77-21.23-30.09-33.15-48.15-33.15-37.61,0-68.09,50.68-68.09,113.19H223.09C223.09,313.73,215.92,284.94,203.15,263.71Z" transform="translate(-86.91 -91.59)"/></svg>