<svg xmlns="http://www.w3.org/2000/svg" viewBox="0 0 87.2 84.45"><defs><style>.cls-1{fill:#fff;}</style></defs><title>Asset 3</title><g id="Layer_2" data-name="Layer 2"><g id="Layer_1-2" data-name="Layer 1"><g id="UserIconWhite"><path id="Vereinigungsmenge_57" data-name="Vereinigungsmenge 57" class="cls-1" d="M5,84.45a5,5,0,0,1-5-5v-5a5,5,0,0,1,2.9-4.54l.43-.21c3-1.45,17.58-6.74,26-9.77a21.9,21.9,0,0,0,20.4,0c8.39,3,22.92,8.32,26,9.77.16.07.3.15.44.22a4.74,4.74,0,0,1,1.07.68l.28.25A5,5,0,0,1,79,74.45v5a5,5,0,0,1-5,5ZM17,33c0-13.53,10.07-24.5,22.5-24.5S62,19.42,62,33s-10.07,24.5-22.5,24.5S17,46.48,17,33Z"/></g><path class="cls-1" d="M73.61,25.59a2.07,2.07,0,0,1-2.09-2V15.36H63.16a2.07,2.07,0,0,1-2.09-2v-1a2.07,2.07,0,0,1,2.09-2h8.36V2.05a2.07,2.07,0,0,1,2.09-2h1a2.07,2.07,0,0,1,2.09,2.05v8.19h8.36a2.07,2.07,0,0,1,2.09,2v1a2.07,2.07,0,0,1-2.09,2H76.75v8.19a2.07,2.07,0,0,1-2.09,2Z"/></g></g></svg>