<svg xmlns="http://www.w3.org/2000/svg" width="40" height="49" viewBox="0 0 40 49">
  <path id="AddFileIcon" d="M30,47.5V42H24.5a1.5,1.5,0,0,1,0-3H30V33.5a1.5,1.5,0,0,1,3,0V39h5.5a1.5,1.5,0,0,1,0,3H33v5.5a1.5,1.5,0,0,1-3,0Zm4-.5V43h3v3a1,1,0,0,1-1,1Zm-5,0H1a1,1,0,0,1-1-1V1A1,1,0,0,1,1,0H24V13a2,2,0,0,0,2,2H37V38H34V33a2,2,0,0,0-2-2H31a2,2,0,0,0-2,2v5H24a2,2,0,0,0-2,2v1a2,2,0,0,0,2,2h5v4h0ZM5,32.5v2a.5.5,0,0,0,.5.5h20a.5.5,0,0,0,.5-.5v-2a.5.5,0,0,0-.5-.5H5.5A.5.5,0,0,0,5,32.5Zm0-6v2a.5.5,0,0,0,.5.5h20a.5.5,0,0,0,.5-.5v-2a.5.5,0,0,0-.5-.5H5.5A.5.5,0,0,0,5,26.5Zm0-6v2a.5.5,0,0,0,.5.5h20a.5.5,0,0,0,.5-.5v-2a.5.5,0,0,0-.5-.5H5.5A.5.5,0,0,0,5,20.5ZM37.013,14H26a1,1,0,0,1-1-1V.178L37.013,14l0,0Z" fill="#fff"/>
</svg>
