<svg xmlns="http://www.w3.org/2000/svg" width="78" height="50.95" viewBox="0 0 78 50.95">
  <path id="CloudIcon" d="M57.32,50.95H20.679A24.094,24.094,0,0,1,5.991,44.638,18.349,18.349,0,0,1,0,31.278,18.263,18.263,0,0,1,5.179,18.73a23.624,23.624,0,0,1,12.933-6.8,24.3,24.3,0,0,1,8.1-8.655A20.869,20.869,0,0,1,37.376,0c7.7,0,14.815,4.317,19.041,11.549C68.519,12.08,78,20.746,78,31.278a18.349,18.349,0,0,1-5.991,13.361A24.094,24.094,0,0,1,57.32,50.95ZM36.574,22.284V38a2,2,0,1,0,4,0V22.284l3.322,3.96a2.185,2.185,0,1,0,3.348-2.81l-6.73-8.021a2.189,2.189,0,0,0-1.91-1.128h-.058a2.184,2.184,0,0,0-1.911,1.128L29.9,23.434a2.185,2.185,0,1,0,3.348,2.809l3.32-3.957Z" fill="#36506c"/>
</svg>
