<svg xmlns="http://www.w3.org/2000/svg" width="35.113" height="35.114" viewBox="0 0 35.113 35.114">
  <path id="CrossIcon_White" d="M30.406,35.356,18.385,23.335,6.364,35.356a2,2,0,0,1-2.829,0L1.414,33.234a2,2,0,0,1,0-2.829L13.435,18.385,1.414,6.364a2,2,0,0,1,0-2.829L3.535,1.414a2,2,0,0,1,2.829,0L18.385,13.435,30.406,1.414a2,2,0,0,1,2.829,0l2.121,2.121a2,2,0,0,1,0,2.829L23.335,18.385,35.356,30.406a2,2,0,0,1,0,2.829l-2.121,2.121a2,2,0,0,1-2.829,0Z" transform="translate(-0.828 -0.828)" fill="#fff"/>
</svg>
