<svg xmlns="http://www.w3.org/2000/svg" viewBox="0 0 90.45 76"><defs><style>.cls-1{fill:#fff;}</style></defs><title>Asset 2</title><g id="Layer_2" data-name="Layer 2"><g id="Layer_1-2" data-name="Layer 1"><g id="UserIconWhite"><path id="Vereinigungsmenge_57" data-name="Vereinigungsmenge 57" class="cls-1" d="M5,76a5,5,0,0,1-5-5V66a5,5,0,0,1,2.9-4.54l.43-.21c3-1.45,17.58-6.74,26-9.77a21.9,21.9,0,0,0,20.4,0c8.39,3,22.92,8.32,26,9.77l.44.22a4.74,4.74,0,0,1,1.07.68l.28.25A5,5,0,0,1,79,66v5a5,5,0,0,1-5,5ZM17,24.5C17,11,27.07,0,39.5,0S62,11,62,24.5,51.93,49,39.5,49,17,38,17,24.5Z"/></g><path class="cls-1" d="M88.88,10.52a2.06,2.06,0,0,0,1.57-2v-1a2.08,2.08,0,0,0-1.67-2H65.87a2.08,2.08,0,0,0-1.68,2v1a2.07,2.07,0,0,0,1.57,2Z"/></g></g></svg>