<svg xmlns="http://www.w3.org/2000/svg" width="18.899" height="18.86" viewBox="0 0 18.899 18.86">
  <g id="EditIconUser" transform="translate(3901.899 3685.46)">
    <g id="EditIcon" transform="translate(-3901.899 -3685.46)">
      <path id="EditIcon-2" data-name="EditIcon" d="M4.616,12.849,8.9,17.132,2.475,19.274Zm.612-.612,9.79-9.79L19.3,6.73l-9.79,9.79Zm10.4-10.4L16.759.707a1,1,0,0,1,1.415,0l2.868,2.868a1,1,0,0,1,0,1.415L19.913,6.119Z" transform="translate(-2.475 -0.414)" fill="#36506c"/>
    </g>
    <path id="Differenzmenge_179" data-name="Differenzmenge 179" d="M6,8H3A2,2,0,0,1,1,6V3A2,2,0,0,1,3,1H6A2,2,0,0,1,8,3V6A2,2,0,0,1,6,8ZM2.911,2.435V5.282a1.4,1.4,0,0,0,.431,1.085A1.67,1.67,0,0,0,4.5,6.758a1.659,1.659,0,0,0,1.158-.4A1.389,1.389,0,0,0,6.1,5.285V2.435H5.36v2.83c0,.6-.288.9-.855.9a.851.851,0,0,1-.639-.226.912.912,0,0,1-.217-.653V2.435Z" transform="translate(-3891 -3674.6)" fill="#36506c"/>
  </g>
</svg>
