<svg xmlns="http://www.w3.org/2000/svg" width="18.899" height="18.96" viewBox="0 0 18.899 18.96">
  <g id="EditIconAdmin" transform="translate(3901.899 3658.46)">
    <g id="EditIcon" transform="translate(-3901.899 -3658.46)">
      <path id="EditIcon-2" data-name="EditIcon" d="M4.616,12.849,8.9,17.132,2.475,19.274Zm.612-.612,9.79-9.79L19.3,6.73l-9.79,9.79Zm10.4-10.4L16.759.707a1,1,0,0,1,1.415,0l2.868,2.868a1,1,0,0,1,0,1.415L19.913,6.119Z" transform="translate(-2.475 -0.415)" fill="#36506c"/>
    </g>
    <path id="Differenzmenge_180" data-name="Differenzmenge 180" d="M6,8H3A2,2,0,0,1,1,6V3A2,2,0,0,1,3,1H6A2,2,0,0,1,8,3V6A2,2,0,0,1,6,8ZM3.672,5.707H5.324l.349.993h.773L4.832,2.435H4.168L2.556,6.7h.77l.345-.992Zm1.445-.6H3.881L4.5,3.34l.618,1.768Z" transform="translate(-3891 -3647.5)" fill="#36506c"/>
  </g>
</svg>
