<svg xmlns="http://www.w3.org/2000/svg" width="37.015" height="47" viewBox="0 0 37.015 47">
  <path id="FileIcon" d="M1,47a1,1,0,0,1-1-1V1A1,1,0,0,1,1,0H24V13a2,2,0,0,0,2,2H37V46a1,1,0,0,1-1,1ZM5,32.5v2a.5.5,0,0,0,.5.5h20a.5.5,0,0,0,.5-.5v-2a.5.5,0,0,0-.5-.5H5.5A.5.5,0,0,0,5,32.5Zm0-6v2a.5.5,0,0,0,.5.5h20a.5.5,0,0,0,.5-.5v-2a.5.5,0,0,0-.5-.5H5.5A.5.5,0,0,0,5,26.5Zm0-6v2a.5.5,0,0,0,.5.5h20a.5.5,0,0,0,.5-.5v-2a.5.5,0,0,0-.5-.5H5.5A.5.5,0,0,0,5,20.5ZM37.013,14H26a1,1,0,0,1-1-1V.178L37.013,14l0,0Z" fill="#36506c"/>
</svg>
