<svg xmlns="http://www.w3.org/2000/svg" width="39" height="39" viewBox="0 0 39 39">
  <g id="GearIcon" transform="translate(3714 3737)">
    <path id="Ausschluss_3" data-name="Ausschluss 3" d="M12.5,25A12.5,12.5,0,0,1,3.661,3.661,12.5,12.5,0,0,1,21.339,21.339,12.418,12.418,0,0,1,12.5,25Zm0-20A7.5,7.5,0,1,0,20,12.5,7.508,7.508,0,0,0,12.5,5Z" transform="translate(-3707 -3730)" fill="#36506c"/>
    <path id="Differenzmenge_24" data-name="Differenzmenge 24" d="M38.5,17H32.26a13.129,13.129,0,0,0,0-5H38.5a.5.5,0,0,1,.5.5v4A.5.5,0,0,1,38.5,17ZM6.74,17H.5a.5.5,0,0,1-.5-.5v-4A.5.5,0,0,1,.5,12H6.74a13.13,13.13,0,0,0,0,5Z" transform="translate(-3714 -3732)" fill="#36506c"/>
    <path id="Differenzmenge_27" data-name="Differenzmenge 27" d="M27.163,29.906a.5.5,0,0,1-.354-.146L22.448,25.4a13,13,0,0,0,3.422-3.65l4.476,4.475a.5.5,0,0,1,0,.707l-2.829,2.829A.5.5,0,0,1,27.163,29.906ZM4.3,7.25h0L-.06,2.889a.5.5,0,0,1,0-.707L2.767-.646a.5.5,0,0,1,.354-.146.5.5,0,0,1,.354.146L7.95,3.829A13,13,0,0,0,4.3,7.249Z" transform="translate(-3709.349 -3732.349)" fill="#36506c"/>
    <path id="Differenzmenge_26" data-name="Differenzmenge 26" d="M16.5,39h-4a.5.5,0,0,1-.5-.5V32.26a13.127,13.127,0,0,0,5,0V38.5A.5.5,0,0,1,16.5,39ZM17,6.741h0a13.1,13.1,0,0,0-5,0V.5a.5.5,0,0,1,.5-.5h4a.5.5,0,0,1,.5.5V6.74Z" transform="translate(-3709 -3737)" fill="#36506c"/>
    <path id="Differenzmenge_25" data-name="Differenzmenge 25" d="M3.121,30.492a.5.5,0,0,1-.354-.146L-.06,27.517a.5.5,0,0,1,0-.707L4.3,22.448A13,13,0,0,0,7.95,25.87L3.475,30.345A.5.5,0,0,1,3.121,30.492ZM25.87,7.95h0A13,13,0,0,0,22.448,4.3L26.809-.06a.5.5,0,0,1,.707,0l2.829,2.828a.5.5,0,0,1,0,.707L25.871,7.949Z" transform="translate(-3709.349 -3732.349)" fill="#36506c"/>
  </g>
</svg>
