<svg xmlns="http://www.w3.org/2000/svg" width="71.777" height="73.28" viewBox="0 0 71.777 73.28"><g transform="translate(2112.889 3751.278)"><path d="M24,41H1a1,1,0,0,1-1-1V1A1,1,0,0,1,1,0H49a1,1,0,0,1,1,1V40a1,1,0,0,1-1,1H38V23a1,1,0,0,0-1-1H25a1,1,0,0,0-1,1V41Z" transform="translate(-2102 -3719)" fill="#707070"/><path d="M37.643,1.252a2,2,0,0,1,2.713,0L74.241,32.53A2,2,0,0,1,72.885,36H5.115a2,2,0,0,1-1.357-3.47Z" transform="translate(-2116 -3752)" fill="#707070"/><path d="M58.891,20.509l0,0-11-10.152V3.278a1,1,0,0,1,1-1h9a1,1,0,0,1,1,1V20.509Z" transform="translate(-2112.891 -3752.278)" fill="#707070"/></g></svg>