<svg xmlns="http://www.w3.org/2000/svg" width="40" height="45" viewBox="0 0 40 45">
  <path id="LogOutIconWhite" d="M12.215,43.418a20.211,20.211,0,0,1-8.7-29.954,20.006,20.006,0,0,1,9-7.272l.112-.054a1.594,1.594,0,0,1,.553-.1A1.968,1.968,0,0,1,14.909,7.33c.49,1.107-.322,1.864-1.084,2.4l-1.264.787a16.077,16.077,0,1,0,14.728-.077l-1.1-.709c-.762-.536-1.575-1.294-1.085-2.4a1.964,1.964,0,0,1,1.724-1.289,1.6,1.6,0,0,1,.554.1l.167.08A20.192,20.192,0,0,1,34.142,39.1a19.92,19.92,0,0,1-21.928,4.315ZM18.04,20.145V1.961a1.961,1.961,0,1,1,3.921,0V20.145a1.961,1.961,0,0,1-3.921,0Z" fill="#fff"/>
</svg>
