<svg id="Layer_1" data-name="Layer 1" xmlns="http://www.w3.org/2000/svg" viewBox="0 0 32 34"><defs><style>.cls-1{fill:#fff;}.cls-2{fill:#d2c5c5;}</style></defs><title>Vereinigungsmenge 51</title><g id="Vereinigungsmenge_51" data-name="Vereinigungsmenge 51"><path class="cls-1" d="M4.69,29.61a14.34,14.34,0,0,1-1-20.27c.3-.33.62-.65,1-.95A16.27,16.27,0,0,1,7.61,6.22L9.48,8.39A12.19,12.19,0,0,0,2.94,19C2.94,25.75,8.8,31.24,16,31.24S29.06,25.75,29.06,19A12.19,12.19,0,0,0,22.52,8.39l1.87-2.17a16.7,16.7,0,0,1,2.93,2.17,14.35,14.35,0,0,1,.94,20.27c-.3.33-.61.65-.94.95A16.5,16.5,0,0,1,16,34,16.46,16.46,0,0,1,4.69,29.61ZM15,16V0h3V16Z" transform="translate(0 0)"/><path class="cls-2" d="M16,34A16.45,16.45,0,0,1,4.69,29.61a14.35,14.35,0,0,1,0-21.22A15.92,15.92,0,0,1,7.61,6.22L9.48,8.39A12.2,12.2,0,0,0,2.94,19C2.94,25.75,8.8,31.24,16,31.24S29.06,25.75,29.06,19A12.2,12.2,0,0,0,22.52,8.39l1.86-2.17a15.66,15.66,0,0,1,2.93,2.17,14.35,14.35,0,0,1,0,21.22A16.45,16.45,0,0,1,16,34Zm2-18H15V0h3Z" transform="translate(0 0)"/></g></svg>