<svg xmlns="http://www.w3.org/2000/svg" width="51.187" height="56.015" viewBox="0 0 51.187 56.015">
  <path id="ShareIconWhite" d="M39.844,58.332a9.994,9.994,0,1,1,4.991,1.342A10,10,0,0,1,39.844,58.332Zm-5.427-9.84L19.989,40.163a10.523,10.523,0,0,0,4.218-7.957l14.961,8.637a10.534,10.534,0,0,0-3.407,3.58,10.424,10.424,0,0,0-1.343,4.068v0Zm-25.75-8.16a9.994,9.994,0,1,1,4.991,1.342A9.954,9.954,0,0,1,8.667,40.332ZM19.3,22.85,34.34,14.169a10.524,10.524,0,0,0,4.2,7.965h0L24.137,30.452A10.462,10.462,0,0,0,19.3,22.85Zm16.873-4.19a10,10,0,1,1,8.67,5A10,10,0,0,1,36.177,18.661Z" transform="translate(-3.659 -3.659)" fill="#fff"/>
</svg>
