<svg xmlns="http://www.w3.org/2000/svg" width="18" height="25" viewBox="0 0 18 25">
  <g id="TrashIcon" transform="translate(3813 3750)">
    <path id="Differenzmenge_23" data-name="Differenzmenge 23" d="M13,21H1a1,1,0,0,1-1-1V0H14V20A1,1,0,0,1,13,21ZM10.5,2a.5.5,0,0,0-.5.5v16a.5.5,0,0,0,1,0V2.5A.5.5,0,0,0,10.5,2ZM7,2a.5.5,0,0,0-.5.5v16a.5.5,0,0,0,1,0V2.5A.5.5,0,0,0,7,2ZM3.5,2a.5.5,0,0,0-.5.5v16a.5.5,0,0,0,1,0V2.5A.5.5,0,0,0,3.5,2Z" transform="translate(-3811 -3746)" fill="#36506c"/>
    <path id="Vereinigungsmenge_12" data-name="Vereinigungsmenge 12" d="M2,4H16a2,2,0,0,1,2,2H0A2,2,0,0,1,2,4Z" transform="translate(-3813 -3752.5)" fill="#36506c"/>
    <path id="Vereinigungsmenge_13" data-name="Vereinigungsmenge 13" d="M1,4H5A1,1,0,0,1,6,5H0A1,1,0,0,1,1,4Z" transform="translate(-3807 -3754)" fill="#36506c"/>
  </g>
</svg>
