<svg xmlns="http://www.w3.org/2000/svg" width="79" height="76" viewBox="0 0 79 76">
  <g id="UserIcon" transform="translate(4121 3637)">
    <path id="Vereinigungsmenge_57" data-name="Vereinigungsmenge 57" d="M5,76a5,5,0,0,1-5-5V66a5,5,0,0,1,2.9-4.538q.2-.106.427-.213C6.373,59.8,20.91,54.509,29.3,51.481a21.891,21.891,0,0,0,20.4,0c8.39,3.026,22.919,8.317,25.978,9.77q.236.112.447.223a5,5,0,0,1,1.067.679,3.32,3.32,0,0,1,.28.251A4.985,4.985,0,0,1,79,66v5a5,5,0,0,1-5,5ZM17,24.5C17,10.969,27.074,0,39.5,0S62,10.969,62,24.5,51.926,49,39.5,49,17,38.031,17,24.5Z" transform="translate(-4121 -3637)" fill="#36506c"/>
  </g>
</svg>
