<svg xmlns="http://www.w3.org/2000/svg" width="43.533" height="61" viewBox="0 0 43.533 61">
  <g id="VersionControlIconWhite" transform="translate(1710 3810)">
    <path id="Vereinigungsmenge_83" data-name="Vereinigungsmenge 83" d="M25.22,52a9,9,0,1,1,9,9A9,9,0,0,1,25.22,52Zm14-9.235h0a10.51,10.51,0,0,0-10,0V18.236a10.519,10.519,0,0,0,10,0V42.766ZM50.753,18a9,9,0,1,1,9,9A9,9,0,0,1,50.753,18ZM25.22,9a9,9,0,1,1,9,9A9,9,0,0,1,25.22,9Z" transform="translate(-1735.22 -3810)" fill="#fff"/>
    <path id="Pfad_94" data-name="Pfad 94" d="M-1701-3769.541c6.7-7.541,8.021-9.453,15.472-11.338s7.338-5.69,7.338-10.357" transform="translate(2.4)" fill="none" stroke="#fff" stroke-width="7"/>
  </g>
</svg>
