<svg xmlns="http://www.w3.org/2000/svg" width="46" height="46" viewBox="0 0 46 46">
  <path id="WorldIconLines" d="M23,46A23,23,0,0,1,6.737,6.737,23,23,0,0,1,39.263,39.263,22.848,22.848,0,0,1,23,46Zm0-3c2.715,0,5.144-2.878,6.74-7.376a22.852,22.852,0,0,0-13.48,0C17.856,40.122,20.285,43,23,43Zm7.07-3.737a19.584,19.584,0,0,1-1.582,2.971,19.976,19.976,0,0,0,7.123-3.723,20.749,20.749,0,0,0-4.4-2.37A28.973,28.973,0,0,1,30.071,39.263ZM17.512,42.235a19.6,19.6,0,0,1-1.582-2.971,28.972,28.972,0,0,1-1.139-3.122,20.747,20.747,0,0,0-4.4,2.37A19.977,19.977,0,0,0,17.512,42.235Zm20.151-5.646A19.927,19.927,0,0,0,42.975,24H32.991a47.919,47.919,0,0,1-1.1,9.544A23.732,23.732,0,0,1,37.662,36.589Zm-29.325,0a23.728,23.728,0,0,1,5.769-3.045A47.92,47.92,0,0,1,13.009,24H3.024A19.927,19.927,0,0,0,8.338,36.589Zm22.17-3.5A40.686,40.686,0,0,0,31.685,24H14.315a40.691,40.691,0,0,0,1.178,9.084,26.514,26.514,0,0,1,15.015,0ZM42.975,22A19.931,19.931,0,0,0,37.663,9.412a23.719,23.719,0,0,1-5.77,3.044A47.932,47.932,0,0,1,32.991,22Zm-11.29,0a40.7,40.7,0,0,0-1.178-9.085A26.185,26.185,0,0,1,23,14a26.191,26.191,0,0,1-7.507-1.084A40.707,40.707,0,0,0,14.315,22ZM13.009,22a47.931,47.931,0,0,1,1.1-9.544,23.715,23.715,0,0,1-5.77-3.045A19.93,19.93,0,0,0,3.024,22ZM23,11.391a22.608,22.608,0,0,0,6.74-1.016C28.144,5.877,25.715,3,23,3s-5.144,2.877-6.74,7.376A22.617,22.617,0,0,0,23,11.391ZM14.79,9.858a28.979,28.979,0,0,1,1.139-3.121,19.6,19.6,0,0,1,1.582-2.971,19.976,19.976,0,0,0-7.124,3.723A20.735,20.735,0,0,0,14.79,9.858ZM30.071,6.737A28.977,28.977,0,0,1,31.21,9.858a20.745,20.745,0,0,0,4.4-2.37,19.974,19.974,0,0,0-7.123-3.723A19.584,19.584,0,0,1,30.071,6.737Z" fill="#fff"/>
</svg>
