<svg xmlns="http://www.w3.org/2000/svg" width="46" height="46" viewBox="0 0 46 46">
  <g id="WorldIcon" transform="translate(1880 3792)">
    <path id="Vereinigungsmenge_70" data-name="Vereinigungsmenge 70" d="M6.737,39.263A23,23,0,0,1,39.263,6.737,23,23,0,0,1,6.737,39.263ZM23,43A20.008,20.008,0,0,0,42.351,17.939c-.107.07-.194-.462-.893-1.3-.958-1.149-3.066-1.533-1.629,0s2.108,2.683,2.108,3.258c0,.517-.62,3.67-1.3,3.67a.312.312,0,0,1-.23-.126c-.767-.862-2.491-6.706-3.353-7.376s-.671-2.491-.671-2.491-2.108,1.437-2.395,0-.479-1.628-1.149-1.436.67,3.352,0,2.587-2.2-4.694-2.2-2.97.767,4.311,0,2.97-3.161-1.246-4.311,0-2.395-.48-1.341-2.012a1.964,1.964,0,0,1,2.151-.541c.625.117,1,.234.532-.417-.958-1.341-1.629-2.108-.862-2.587s4.5-.958,4.6-1.629c.047-.336,1.317.048,2.561.43s2.468.767,2.42.432a.5.5,0,0,1,.029-.225A19.977,19.977,0,0,0,15.394,4.5c.614.437,1.146.822,1.56,1.06,1.732,1-2.381.613-4,.149a20.064,20.064,0,0,0-2.171,1.465,14.9,14.9,0,0,1-1.493,2.44c-1.179,1.327-.884,2.064-.442,2.064a8.949,8.949,0,0,1,3.1.368c1.179.443-.074-2.726.589-3.463S16.51,9.542,18.8,10.5s-3.021,1.474-4.127,1.547.811,2.875,0,2.064c-.449-.449-1.555.257-2.527.962a6.8,6.8,0,0,1-1.673,1.1c-.211-.035-.555,1.118-.875,2.271-.35,1.266-.67,2.533-.746,2.225-.148-.59-1.179-1.18-2.358-1.769-.6-.3-1.054.595-1.21,1.492-.149.854-.031,1.708.472,1.529.482-.173,1.273.365,1.847.9.5.468.839.937.67.937a.757.757,0,0,1-.306-.145,1.565,1.565,0,0,0-1.634-.092,1.378,1.378,0,0,1-1.165.092c-.958-.443-1.621-4.054-1.621-4.054s-.3,3.464-.369,2.358a1.758,1.758,0,0,0-.11-.513Q3,22.2,3,23A19.935,19.935,0,0,0,8.764,37.035a23.17,23.17,0,0,1,2.047-7.075c.366-.586-.146-1.39-1.318-1.9s.439-5.2,1.318-5.782,3.147,1.1,5.417,1.318a4.867,4.867,0,0,1,3.44,2.2,4.548,4.548,0,0,0-1.39,2.928c-.22,1.976-3,.439-6.441,5.417A9.319,9.319,0,0,0,10.011,38.2,19.916,19.916,0,0,0,23,43Zm7.674-6.555c-1.149-1.342-1.245-5.653-.862-6.323s1.916-1.82,1.533-2.874-.1-1.533,0-2.778-.191-2.587-.67-2.2-4.406,1.436-4.694.575.67-.767,0-1.342-1.054-2.395-.67-2.778,1.724-1.82,3.065-2.011a3.356,3.356,0,0,1,1.728.368c.676.293,1.187.585,1.241.207.1-.67,3.737-.1,4.12.479a13.363,13.363,0,0,0,1.915,2.491c.767.671,1.437,4.885,2.778,4.885s.575,2.108,0,2.97-2.395,1.628-2.3,2.97c.051.722-.7.666-1.38.61-.581-.048-1.1-.095-1.015.347.191.958-.288,1.629-1.342,3.162-.715,1.04-1.518,1.86-2.32,1.86A1.491,1.491,0,0,1,30.675,36.445Z" transform="translate(-1880 -3792)" fill="#fff"/>
  </g>
</svg>
